{"title":"Hisss (2010 ) 1CDrip - DVDSCR - XviD","uid":5912579,"size":731794347,"categoryP":"video","categoryS":"movies","magnet":"?xt=urn:btih:62fb2b4229730cdaee41ff2a82a01d020a1ff7e7&amp;dn=Hisss+%282010+%29+1CDrip+-+DVDSCR+-+XviD&amp;tr=udp%3A%2F%2Ftracker.openbittorrent.com%3A80&amp;tr=udp%3A%2F%2Fopen.demonii.com%3A1337&amp;tr=udp%3A%2F%2Ftracker.coppersurfer.tk%3A6969&amp;tr=udp%3A%2F%2Fexodus.desync.com%3A6969","seeders":0,"leechers":1,"uploader":"deffjam555","files":3,"time":1288100890,"description":"General\nComplete name : Hisss (2010 )1CDrip - DvDScR - XviD - Team SRG.avi\nFormat : AVI\nFormat/Info : Audio Video Interleave\nFile size : 698 MiB\nDuration : 1h 26mn\nOverall bit rate : 1 130 Kbps\nWriting application : VirtualDubMod 1.5.10.2 (build 2540/release)\nWriting library : VirtualDubMod build 2540/release\n\nVideo\nID : 0\nFormat : MPEG-4 Visual\nFormat profile : Advanced Simple@L5\nFormat settings, BVOP : Yes\nFormat settings, QPel : No\nFormat settings, GMC : No warppoints\nFormat settings, Matrix : Custom\nCodec ID : XVID\nCodec ID/Hint : XviD\nDuration : 1h 26mn\nBit rate : 1 041 Kbps\nWidth : 688 pixels\nHeight : 320 pixels\nDisplay aspect ratio : 2.2:1\nFrame rate : 25.000 fps\nColor space : YUV\nChroma subsampling : 4:2:0\nBit depth : 8 bits\nScan type : Progressive\nBits/(Pixel*Frame) : 0.189\nStream size : 642 MiB (92%)\nWriting library : XviD 1.2.1 (UTC 2008-12-04)\n\nAudio\nID : 1\nFormat : MPEG Audio\nFormat version : Version 2\nFormat profile : Layer 3\nMode : Joint stereo\nMode extension : Intensity Stereo + MS Stereo\nCodec ID : 55\nCodec ID/Hint : MP3\nDuration : 1h 26mn\nBit rate mode : Constant\nBit rate : 80.0 Kbps\nChannel(s) : 2 channels\nSampling rate : 24.0 KHz\nStream size : 49.4 MiB (7%)\nAlignment : Aligned on interleaves\nInterleave, duration : 40 ms (1.00 video frame)\nInterleave, preload duration : 504 ms\n\n","torrent":{"xt":"urn:btih:62fb2b4229730cdaee41ff2a82a01d020a1ff7e7","amp;dn":"Hisss+%282010+%29+1CDrip+-+DVDSCR+-+XviD","amp;tr":["udp%3A%2F%2Ftracker.openbittorrent.com%3A80","udp%3A%2F%2Fopen.demonii.com%3A1337","udp%3A%2F%2Ftracker.coppersurfer.tk%3A6969","udp%3A%2F%2Fexodus.desync.com%3A6969"],"infoHash":"62fb2b4229730cdaee41ff2a82a01d020a1ff7e7","infoHashBuffer":{"type":"Buffer","data":[98,251,43,66,41,115,12,218,238,65,255,42,130,160,29,2,10,31,247,231]},"announce":[],"urlList":[]}}